<svg width="300" height="200" xmlns="http://www.w3.org/2000/svg">
  <!-- Fundo da etiqueta -->
  <rect width="300" height="200" fill="#ffffff" stroke="#000000" stroke-width="2"/>
  
  <!-- Título da empresa -->
  <text x="150" y="25" text-anchor="middle" font-family="Arial, sans-serif" font-size="14" font-weight="bold" fill="#000000">SMART LOCATION WMS</text>
  
  <!-- Nome do produto -->
  <text x="20" y="50" font-family="Arial, sans-serif" font-size="12" font-weight="bold" fill="#000000">PRODUTO:</text>
  <text x="20" y="65" font-family="Arial, sans-serif" font-size="11" fill="#000000">Leite UHT Integral 1L</text>
  
  <!-- SKU -->
  <text x="20" y="85" font-family="Arial, sans-serif" font-size="12" font-weight="bold" fill="#000000">SKU:</text>
  <text x="20" y="100" font-family="Arial, sans-serif" font-size="11" fill="#000000">LTU-001-1L</text>
  
  <!-- Peso -->
  <text x="150" y="85" font-family="Arial, sans-serif" font-size="12" font-weight="bold" fill="#000000">PESO:</text>
  <text x="150" y="100" font-family="Arial, sans-serif" font-size="11" fill="#000000">1.05 kg</text>
  
  <!-- Validade -->
  <text x="20" y="120" font-family="Arial, sans-serif" font-size="12" font-weight="bold" fill="#000000">VALIDADE:</text>
  <text x="20" y="135" font-family="Arial, sans-serif" font-size="11" fill="#000000">2024-12-15</text>
  
  <!-- Volume -->
  <text x="150" y="120" font-family="Arial, sans-serif" font-size="12" font-weight="bold" fill="#000000">VOLUME:</text>
  <text x="150" y="135" font-family="Arial, sans-serif" font-size="11" fill="#000000">0.001 m³</text>
  
  <!-- Tipo de embalagem -->
  <text x="20" y="155" font-family="Arial, sans-serif" font-size="12" font-weight="bold" fill="#000000">EMBALAGEM:</text>
  <text x="20" y="170" font-family="Arial, sans-serif" font-size="11" fill="#000000">Tetra Pak</text>
  
  <!-- Código de barras simulado -->
  <rect x="150" y="150" width="120" height="30" fill="#000000"/>
  <rect x="152" y="152" width="2" height="26" fill="#ffffff"/>
  <rect x="156" y="152" width="1" height="26" fill="#ffffff"/>
  <rect x="159" y="152" width="3" height="26" fill="#ffffff"/>
  <rect x="164" y="152" width="1" height="26" fill="#ffffff"/>
  <rect x="167" y="152" width="2" height="26" fill="#ffffff"/>
  <rect x="171" y="152" width="1" height="26" fill="#ffffff"/>
  <rect x="174" y="152" width="3" height="26" fill="#ffffff"/>
  <rect x="179" y="152" width="2" height="26" fill="#ffffff"/>
  <rect x="183" y="152" width="1" height="26" fill="#ffffff"/>
  <rect x="186" y="152" width="2" height="26" fill="#ffffff"/>
  <rect x="190" y="152" width="3" height="26" fill="#ffffff"/>
  <rect x="195" y="152" width="1" height="26" fill="#ffffff"/>
  <rect x="198" y="152" width="2" height="26" fill="#ffffff"/>
  <rect x="202" y="152" width="1" height="26" fill="#ffffff"/>
  <rect x="205" y="152" width="3" height="26" fill="#ffffff"/>
  <rect x="210" y="152" width="2" height="26" fill="#ffffff"/>
  <rect x="214" y="152" width="1" height="26" fill="#ffffff"/>
  <rect x="217" y="152" width="2" height="26" fill="#ffffff"/>
  <rect x="221" y="152" width="3" height="26" fill="#ffffff"/>
  <rect x="226" y="152" width="1" height="26" fill="#ffffff"/>
  <rect x="229" y="152" width="2" height="26" fill="#ffffff"/>
  <rect x="233" y="152" width="1" height="26" fill="#ffffff"/>
  <rect x="236" y="152" width="3" height="26" fill="#ffffff"/>
  <rect x="241" y="152" width="2" height="26" fill="#ffffff"/>
  <rect x="245" y="152" width="1" height="26" fill="#ffffff"/>
  <rect x="248" y="152" width="2" height="26" fill="#ffffff"/>
  <rect x="252" y="152" width="1" height="26" fill="#ffffff"/>
  <rect x="255" y="152" width="3" height="26" fill="#ffffff"/>
  <rect x="260" y="152" width="2" height="26" fill="#ffffff"/>
  <rect x="264" y="152" width="1" height="26" fill="#ffffff"/>
  <rect x="267" y="152" width="1" height="26" fill="#ffffff"/>
  
  <!-- Número do código de barras -->
  <text x="210" y="190" text-anchor="middle" font-family="Arial, sans-serif" font-size="8" fill="#000000">7891234567890</text>
</svg>